<svg xmlns="http://www.w3.org/2000/svg" width="100" height="50">
	<defs>
		<path id="needle" transform="rotate(67.5)" d="
			M -30 0
			L 0 -2
			L 0 2
			Z
			M 4 0
			A 4 4 0 0 1 -4 0
			A 4 4 0 0 1 4 0
			Z" />
	</defs>
	
	<mask id="cutout">
		<rect x="-50" y="-50" width="100" height="100" fill="white" />
		<path stroke="black" stroke-width="4" d="
			M 0 0
			  -50 0
			  0 0
			  -50 -50
			  0 0 
			  0 -50
			  0 0 
			  50 -50
			  0 0
			  50 0
			Z
			M -15 0
			A 15 15 0 0 1 15 0
			Z" />
		<use href="#needle" stroke="black" stroke-width="3" stroke-linejoin="round" stroke-linecap="round" />
	</mask>
	<g fill="#ffc000" stroke="none" transform="translate(50 45)">
		<path mask="url(#cutout)" d="
			M -40 0
			A 40 40 0 0 1 40 0
			Z" />
		<use href="#needle" />
	</g>
</svg>