<?xml version="1.0" encoding="utf-8"?>
<svg width="100" height="100" xmlns="http://www.w3.org/2000/svg" xmlns:xlink="http://www.w3.org/1999/xlink">
  <defs>
    <path id="path-0" style="fill: none;" d="M 5.263 45.029 C 16.546 63.358 28.074 75.323 42.339 79.766 C 53.866 83.356 34.647 76.473 51.696 79.883 C 68.39 72.011 75.198 64.552 81.988 55.322 C 85.198 50.959 88.728 46.907 89.708 41.52 L 89.708 40.702 C 89.708 40.503 89.591 40.316 89.591 40.117"/>
    <path id="path-1" style="fill: none;" d="M 12.632 51.579 C 11.587 56.567 14.193 60.801 15.322 64.561 C 17.999 69.704 20.367 72.998 23.275 75.906 C 26.115 78.747 28.637 79.906 31.462 81.52 C 37.425 83.586 42.24 84.492 47.251 85.263 C 53.233 85.497 58.093 86.211 62.69 84.678 C 65.416 83.315 67.271 81.827 69.24 80.702 C 73.53 77.88 76.413 75.971 78.83 72.749 C 81.786 68.071 82.894 65.002 84.561 62.222 C 86.004 58.479 88.148 56.166 89.708 53.567 C 91.105 51.557 91.579 49.84 91.579 48.187 C 91.579 45.985 91.228 44.373 91.228 42.807 C 89.605 38.053 85.07 36.744 81.52 35.088 C 73.217 32.494 66.713 31.006 60 30.526 C 54.086 29.872 49.585 28.772 44.912 28.772 C 39.291 28.772 34.808 29.029 30.877 30.994 C 24.166 36.199 22.559 41.863 22.105 49.123 C 22.471 57.218 25.769 61.926 29.825 66.433 C 36.001 71.212 43.02 72.625 49.006 74.62 C 66.092 77.941 82.349 75.458 97.427 74.62 C 117.32 72.816 131.385 71.813 145.614 71.813 C 165.195 70.729 181.067 69.818 196.959 68.304 C 202.413 66.139 203.932 65.468 205.263 63.743 C 211.663 55.447 198.344 45.486 192.865 41.754 C 190.495 40.14 188.003 38.706 185.497 37.31 C 182.542 35.664 179.553 34.07 176.491 32.632 C 173.077 31.027 169.43 29.926 166.082 28.187 C 140.685 22.293 123.144 18.2 110.643 27.602 C 99.1 36.285 100.532 53.043 114.035 59.181 C 134.081 68.293 116.465 57.721 134.62 62.69 C 151.945 59.716 155.763 59.4 161.871 54.971 C 177.832 43.399 180.012 20.763 166.901 6.316 C 163.341 2.393 158.014 -1.255 152.982 -3.041 C 150.619 -3.88 147.85 -3.425 145.614 -4.561 C 137.037 -2.144 134.664 -1.046 132.982 0.819 C 124.507 10.218 120.989 25.028 120.117 37.193 C 119.265 49.073 120.712 61.616 130.877 69.24 C 136.292 73.301 145.512 75.674 152.164 74.035 C 155.181 73.292 157.596 70.388 160.702 70.292 C 173.918 60 177.4 57.263 180.234 53.918 C 188.644 43.994 198.937 26.431 186.784 15.088 C 184.662 13.108 182.019 11.653 179.298 10.643 C 175.742 9.324 171.971 8.452 168.187 8.187 C 141.646 6.327 118.475 23.105 95.088 32.398 C 56.464 54.83 41.119 64.503 26.55 75.673 C 23.275 78.183 16.572 84.158 12.281 86.199 C 11.21 86.708 9.927 87.053 8.772 86.784 C 5.78 86.086 2.592 81.607 1.404 79.532 C -1.08 75.195 -3.977 68.807 -3.977 63.509 C -3.977 61.881 -2.268 60.43 -2.573 58.83 C 6.901 54.269 11.031 52.84 15.322 52.398 C 40.922 49.759 68.83 55.14 91.813 66.55 C 107.67 74.422 111.924 80.297 121.754 92.749 C 125.476 97.463 128.876 106.015 136.491 105.38 C 156.845 103.684 120.153 104.132 154.152 97.076 C 175.361 74.971 182.22 68.849 185.029 60.702 C 192.736 38.354 162.749 33.392 149.24 32.164 C 115.234 29.072 87.668 35.052 54.152 45.146 C -9.803 64.408 -7.251 47.153 -7.251 76.608 C -7.251 77.232 -7.251 75.361 -7.251 74.737 C -7.251 69.693 -6.667 69.138 -6.667 64.094 C 5.809 52.554 11.888 47.782 19.064 46.082 C 30.11 43.465 41.632 42.896 52.982 43.041 C 91.138 43.527 114.331 46.048 147.836 66.199 C 155.918 71.059 161.27 79.473 167.368 86.667 C 170.936 90.874 172.262 99.44 177.778 99.532 C 179.292 99.557 180.832 99.196 182.222 98.596 C 190.935 94.842 201.394 87.876 207.018 80.702 C 211.504 74.978 211.653 66.115 217.193 61.404 C 212.008 44.912 209.009 40.898 204.678 39.298 C 195.741 35.997 186.248 33.022 176.725 33.333 C 141.389 34.489 122.51 46.934 94.503 68.304 C 82.968 77.105 73.56 88.402 62.69 98.012 C 60.089 100.311 57.301 102.515 54.152 103.977 C 53.576 104.244 53.121 103.154 52.865 102.573 C 51.973 100.541 51.412 98.379 50.76 96.257 C 49.423 91.906 47.816 87.617 46.901 83.158 C 12.811 -82.845 64.864 177.73 51.579 63.275 C 196.062 94.094 190.392 74.467 192.281 101.287 C 192.316 101.792 192.42 100.253 192.281 99.766 C 190.621 93.956 190.06 87.607 186.901 82.456 C 174.191 61.737 154.882 50.617 129.474 48.655 C 112.498 47.344 94.931 50.274 78.947 56.14 C 73.042 58.308 43.615 75.34 46.433 91.345 C 47.239 95.926 57.766 93.333 59.883 94.152"/>
    <path id="path-2" style="fill: none;" d="M 12.281 58.83 C 15.248 67.144 19.88 70.757 24.094 74.971 C 32.589 80.31 39.502 81.904 47.251 83.626 C 55.011 84.525 60.306 83.932 65.848 82.924 C 71.067 81.223 73.311 78.776 75.906 75.439 C 77.558 71.335 78.666 68.355 79.181 65.263 C 79.596 63.189 79.76 61.539 80.234 60.117 L 80.351 60"/>
    <path id="path-3" style="fill: none;" d="M 5.263 48.772 C 6.364 52.777 6.247 56.335 7.018 59.415 C 8.117 63.758 9.065 66.434 10.526 69.357 C 12.949 73.48 16.443 75.874 19.649 78.012 C 25.586 81.431 30.503 83.591 35.789 84.912 C 44.076 87.381 51.228 87.368 58.363 87.368 C 63.219 86.948 68.228 86.976 70.526 84.678 C 75.521 81.411 79.561 78.604 83.626 75.556 C 89.309 69.6 91.433 65.202 92.749 59.064 C 93.442 52.402 94.048 47.08 93.099 42.339 C 92.84 40.807 92.929 39.245 92.398 38.713 L 92.398 38.596 C 92.398 38.431 92.281 37.163 92.281 37.778"/>
    <path id="path-4" style="fill: none;" d="M 50.877 9.357 C 50.877 20.787 55.627 27.476 62.456 33.684 C 70.008 37.905 73.988 36.221 80 34.503 C 83.317 33.358 85.735 31.151 88.187 29.591 C 89.529 27.609 89.825 26.371 89.825 24.327 L 89.708 23.977 C 89.708 23.623 89.591 23.408 89.591 23.041"/>
  </defs>
  <circle cx="50" cy="50" r="50" fill="#000000"/>
  <rect x="20" y="15" width="20" height="10" style="fill: rgb(208, 0, 16); stroke: rgb(0, 0, 0);" rx="5" ry="5"/>
  <rect x="60" y="15" width="20" height="10" style="fill: rgb(208, 0, 16); stroke: rgb(0, 0, 0);" rx="5" ry="5"/>
  <text style="fill: rgb(51, 51, 51); font-family: Arial, sans-serif; font-size: 28px; white-space: pre;"><textPath xlink:href="#path-2"> </textPath></text>
  <text style="fill: rgb(51, 51, 51); font-family: Arial, sans-serif; font-size: 28px; white-space: pre; transform-box: fill-box; transform-origin: 50% 50%;" transform="matrix(-0.723882, 0.689924, -0.689924, -0.723882, 0.000003, 0.000011)"><textPath xlink:href="#path-3">rav</textPath></text>
</svg>